<svg width="753" height="122" viewBox="0 0 753 122" fill="none" xmlns="http://www.w3.org/2000/svg">
<path d="M683.443 52.62H680.093V15.9947H710.627C723.713 15.9947 733.164 23.3493 733.164 34.308C733.164 45.2627 723.713 52.62 710.627 52.62H683.443ZM718.889 68.612C734.533 68.612 751.788 56.1173 751.788 34.308C751.788 11.9493 736.073 -1.71883e-05 712.991 -1.71883e-05H661.917V52.62H604.859L611.385 68.432L661.917 68.612V121.229H680.093V68.612H683.443H699.16L731.709 121.229H752.795L718.889 68.612Z" fill="white"/>
<path d="M162.972 52.62L176.609 15.8133L190.321 52.62H162.972ZM54.3453 105.235H18.1771V67.4333H54.3453C67.7932 67.4333 74.7005 76.156 74.7005 86.152C74.7005 97.9667 67.0661 105.235 54.3453 105.235ZM18.1771 15.9973H53.4355C65.612 15.9973 72.3396 23.8107 72.3396 33.8093C72.3396 43.804 65.612 51.4373 53.4355 51.4373H18.1771V15.9973ZM394.664 68.612L400.876 52.62H321.321L348.488 14.9027V-2.94665e-06H259.979V15.996H325.045L298.664 52.62H208.964L188.059 -2.94665e-06H165.339L144.433 52.62H81.8104C87.2833 47.7147 91.0579 40.272 91.0579 30.9C91.0579 13.2707 78.5193 0.00133169 56.8885 0.00133169H0V121.23H58.3432C80.6973 121.23 93.4219 107.599 93.4219 88.516C93.4219 81.048 90.7063 74.004 86.3495 68.612H138.08L117.177 121.229H137.167L144.443 102.637L157.048 68.612H196.279L208.955 102.637L216.231 121.229H236.224L215.319 68.612H287.144L259.979 106.325V121.229H349.764V105.233H283.425L309.803 68.612H394.664Z" fill="white"/>
<path d="M421.68 -1.52588e-05L373.519 121.229H393.508L400.784 102.637L432.951 15.8133L465.296 102.637L472.572 121.229H492.565L444.4 -1.52588e-05H421.68Z" fill="#7E80C8"/>
<path d="M584.147 -1.52588e-05H561.427L513.265 121.229H533.255L540.531 102.637L572.697 15.8133L605.043 102.637L612.319 121.229H632.312L584.147 -1.52588e-05Z" fill="#7E80C8"/>
</svg>
