<svg width="895" height="246" viewBox="0 0 895 246" fill="none" xmlns="http://www.w3.org/2000/svg">
<path d="M465.064 52.62H540.86L534.083 68.612H471.589L465.064 52.62Z" fill="#040404"/>
<path d="M683.443 52.62H680.093V15.9947H710.627C723.713 15.9947 733.164 23.3493 733.164 34.308C733.164 45.2627 723.713 52.62 710.627 52.62H683.443ZM718.889 68.612C734.533 68.612 751.788 56.1173 751.788 34.308C751.788 11.9493 736.073 -1.71883e-05 712.991 -1.71883e-05H661.917V52.62H604.859L611.385 68.432L661.917 68.612V121.229H680.093V68.612H683.443H699.16L731.709 121.229H752.795L718.889 68.612Z" fill="#040404"/>
<path d="M162.972 52.62L176.609 15.8134L190.321 52.62H162.972ZM54.3453 105.235H18.1771V67.4334H54.3453C67.7932 67.4334 74.7005 76.156 74.7005 86.152C74.7005 97.9667 67.0661 105.235 54.3453 105.235ZM18.1771 15.9974H53.4355C65.612 15.9974 72.3396 23.8107 72.3396 33.8094C72.3396 43.804 65.612 51.4374 53.4355 51.4374H18.1771V15.9974ZM394.664 68.612L400.876 52.62H321.321L348.488 14.9027V2.75709e-05H259.979V15.996H325.045L298.664 52.62H208.964L188.059 2.75709e-05H165.339L144.433 52.62H81.8104C87.2833 47.7147 91.0579 40.272 91.0579 30.9C91.0579 13.2707 78.5193 0.00136221 56.8885 0.00136221H0V121.23H58.3432C80.6973 121.23 93.4219 107.599 93.4219 88.516C93.4219 81.048 90.7063 74.004 86.3495 68.612H138.08L117.177 121.229H137.167L144.443 102.637L157.048 68.612H196.279L208.955 102.637L216.231 121.229H236.224L215.319 68.612H287.144L259.979 106.325V121.229H349.764V105.233H283.425L309.803 68.612H394.664Z" fill="#040404"/>
<path d="M421.68 -1.71883e-05L373.519 121.229H393.508L400.784 102.637L432.951 15.8133L465.296 102.637L472.572 121.229H492.565L444.4 -1.71883e-05H421.68Z" fill="#7E80C8"/>
<path d="M584.147 -1.71883e-05H561.427L513.265 121.229H533.255L540.531 102.637L572.697 15.8133L605.043 102.637L612.319 121.229H632.312L584.147 -1.71883e-05Z" fill="#7E80C8"/>
<path d="M762.031 175.901L761.253 159.881L753.413 175.901H750.085L748.717 155.152H752.107L752.729 171.796L760.941 155.152H763.461L764.301 171.796L772.296 155.152H775.843L765.359 175.901H762.031Z" fill="#040404"/>
<path d="M774.544 175.901L779.115 155.152H793.051L792.431 157.891H781.636L780.297 163.956H790.875L790.252 166.693H779.676L778.245 173.164H789.04L788.48 175.901H774.544Z" fill="#040404"/>
<path d="M754.067 208.013C759.853 208.013 763.431 203.876 763.431 199.055C763.431 195.447 760.88 192.74 757.395 192.74H753.227L749.836 208.013H754.067ZM757.955 190.003C762.591 190.003 766.697 193.642 766.697 198.868C766.697 204.468 762.747 210.75 753.507 210.75H746.135L750.708 190.003H757.955Z" fill="#040404"/>
<path d="M768.693 210.75L773.267 190.003H787.203L786.58 192.74H775.785L774.448 198.805H785.025L784.403 201.543H773.827L772.395 208.013H783.189L782.629 210.75H768.693Z" fill="#040404"/>
<path d="M793.243 210.75L789.572 190.003H792.963L795.763 207.36L806.245 190.003H809.947L797.131 210.75H793.243Z" fill="#040404"/>
<path d="M808.491 210.75L813.063 190.003H826.999L826.377 192.74H815.583L814.245 198.805H824.823L824.2 201.543H813.623L812.192 208.013H822.987L822.427 210.75H808.491Z" fill="#040404"/>
<path d="M826.941 210.75L831.513 190.003H834.625L830.644 208.013H840.039L839.477 210.75H826.941Z" fill="#040404"/>
<path d="M855.347 192.428C850.805 192.428 847.009 196.442 847.009 201.792C847.009 205.991 849.965 208.356 853.699 208.356C858.209 208.356 862.035 204.343 862.035 198.992C862.035 194.824 859.049 192.428 855.347 192.428ZM855.533 189.66C860.977 189.66 865.271 193.05 865.271 198.775C865.271 205.711 860.105 211.124 853.511 211.124C848.068 211.124 843.775 207.733 843.775 201.979C843.775 195.073 848.939 189.66 855.533 189.66Z" fill="#040404"/>
<path d="M877.781 200.019C880.737 200.019 882.417 198.059 882.417 195.756C882.417 194.108 881.079 192.74 879.213 192.74H874.173L872.555 200.019H877.781ZM867.081 210.75L871.653 190.003H879.711C883.475 190.003 885.652 192.523 885.652 195.476C885.652 198.619 883.537 202.756 877.533 202.756H871.964L870.192 210.75H867.081Z" fill="#040404"/>
<path d="M758.951 227.589H753.227L751.889 233.655H758.08C760.848 233.655 761.813 231.82 761.813 230.171C761.813 228.709 760.537 227.589 758.951 227.589ZM757.177 236.393H751.268L749.836 242.863H756.12C758.796 242.863 760.227 241.089 760.227 239.192C760.227 237.575 759.105 236.393 757.177 236.393ZM746.135 245.6L750.708 224.852H759.76C762.964 224.852 765.141 226.936 765.141 229.673C765.141 232.567 762.933 234.931 760.351 235.18C762.187 235.677 763.368 237.544 763.368 239.442C763.368 242.459 761.221 245.6 756.245 245.6H746.135Z" fill="#040404"/>
<path d="M768.32 238.975C768.32 238.476 768.383 237.575 768.505 237.014L771.181 224.852H774.324L771.679 236.921C771.524 237.637 771.461 238.104 771.461 238.695C771.461 241.369 773.267 243.237 776.5 243.237C780.233 243.237 781.944 240.967 782.721 237.419L785.492 224.852H788.633L785.864 237.45C784.744 242.552 782.319 245.973 776.345 245.973C771.244 245.973 768.32 243.205 768.32 238.975Z" fill="#040404"/>
<path d="M791.096 239.938C792.527 241.93 795.077 243.205 797.971 243.205C800.927 243.205 802.139 241.338 802.139 239.784C802.139 238.104 800.148 237.325 797.971 236.455C795.14 235.366 791.904 234.123 791.904 230.793C791.904 227.496 794.953 224.54 799.464 224.54C802.7 224.54 805.623 225.785 807.179 227.838L805.125 230.047C803.725 228.18 801.299 227.279 799.059 227.279C796.883 227.279 795.233 228.709 795.233 230.296C795.233 231.789 797.131 232.567 799.308 233.437C802.169 234.525 805.468 235.863 805.468 239.255C805.468 242.707 802.7 245.973 797.721 245.973C793.895 245.973 790.567 244.388 789.044 242.209L791.096 239.938Z" fill="#040404"/>
<path d="M808.304 245.6L812.876 224.852H815.988L811.415 245.6H808.304Z" fill="#040404"/>
<path d="M831.263 245.6L823.453 228.959L819.783 245.6H816.672L821.245 224.852H824.449L832.133 241.121L835.741 224.852H838.852L834.279 245.6H831.263Z" fill="#040404"/>
<path d="M839.511 245.6L844.084 224.852H858.02L857.397 227.589H846.604L845.267 233.655H855.843L855.22 236.393H844.644L843.213 242.863H854.007L853.447 245.6H839.511Z" fill="#040404"/>
<path d="M859.736 239.938C861.167 241.93 863.717 243.205 866.611 243.205C869.565 243.205 870.779 241.338 870.779 239.784C870.779 238.104 868.788 237.325 866.611 236.455C863.78 235.366 860.545 234.123 860.545 230.793C860.545 227.496 863.593 224.54 868.104 224.54C871.339 224.54 874.264 225.785 875.819 227.838L873.765 230.047C872.365 228.18 869.939 227.279 867.7 227.279C865.521 227.279 863.873 228.709 863.873 230.296C863.873 231.789 865.772 232.567 867.948 233.437C870.811 234.525 874.107 235.863 874.107 239.255C874.107 242.707 871.339 245.973 866.363 245.973C862.536 245.973 859.208 244.388 857.683 242.209L859.736 239.938Z" fill="#040404"/>
<path d="M878.717 239.938C880.148 241.93 882.699 243.205 885.592 243.205C888.547 243.205 889.76 241.338 889.76 239.784C889.76 238.104 887.769 237.325 885.592 236.455C882.761 235.366 879.525 234.123 879.525 230.793C879.525 227.496 882.573 224.54 887.084 224.54C890.32 224.54 893.244 225.785 894.799 227.838L892.745 230.047C891.345 228.18 888.92 227.279 886.68 227.279C884.501 227.279 882.853 228.709 882.853 230.296C882.853 231.789 884.752 232.567 886.929 233.437C889.791 234.525 893.088 235.863 893.088 239.255C893.088 242.707 890.32 245.973 885.343 245.973C881.516 245.973 878.188 244.388 876.663 242.209L878.717 239.938Z" fill="#040404"/>
</svg>
