<svg width="868" height="280" viewBox="0 0 868 280" fill="none" xmlns="http://www.w3.org/2000/svg">
<path d="M465.064 122.62H540.86L534.083 138.612H471.589L465.064 122.62Z" fill="#040404"/>
<path d="M683.443 122.62H680.093V85.9947H710.627C723.713 85.9947 733.164 93.3493 733.164 104.308C733.164 115.263 723.713 122.62 710.627 122.62H683.443ZM718.889 138.612C734.533 138.612 751.788 126.117 751.788 104.308C751.788 81.9493 736.073 70 712.991 70H661.917V122.62H604.859L611.385 138.432L661.917 138.612V191.229H680.093V138.612H683.443H699.16L731.709 191.229H752.795L718.889 138.612Z" fill="#040404"/>
<path d="M162.972 122.62L176.609 85.8134L190.321 122.62H162.972ZM54.3453 175.235H18.1771V137.433H54.3453C67.7932 137.433 74.7005 146.156 74.7005 156.152C74.7005 167.967 67.0661 175.235 54.3453 175.235ZM18.1771 85.9974H53.4355C65.612 85.9974 72.3396 93.8107 72.3396 103.809C72.3396 113.804 65.612 121.437 53.4355 121.437H18.1771V85.9974ZM394.664 138.612L400.876 122.62H321.321L348.488 84.9027V70H259.979V85.996H325.045L298.664 122.62H208.964L188.059 70H165.339L144.433 122.62H81.8104C87.2833 117.715 91.0579 110.272 91.0579 100.9C91.0579 83.2707 78.5193 70.0013 56.8885 70.0013H0V191.23H58.3432C80.6973 191.23 93.4219 177.599 93.4219 158.516C93.4219 151.048 90.7063 144.004 86.3495 138.612H138.08L117.177 191.229H137.167L144.443 172.637L157.048 138.612H196.279L208.955 172.637L216.231 191.229H236.224L215.319 138.612H287.144L259.979 176.325V191.229H349.764V175.233H283.425L309.803 138.612H394.664Z" fill="#040404"/>
<path d="M421.68 70L373.519 191.229H393.508L400.784 172.637L432.951 85.8133L465.296 172.637L472.572 191.229H492.565L444.4 70H421.68Z" fill="#FFA800"/>
<path d="M584.147 70H561.427L513.265 191.229H533.255L540.531 172.637L572.697 85.8133L605.043 172.637L612.319 191.229H632.312L584.147 70Z" fill="#FFA800"/>
<path d="M155.426 48H138.699L146.426 1.45454H162.835C167.517 1.45454 171.403 2.40909 174.494 4.31818C177.6 6.22727 179.79 8.96212 181.062 12.5227C182.335 16.0682 182.562 20.303 181.744 25.2273C180.956 29.9848 179.388 34.0682 177.04 37.4773C174.691 40.8712 171.684 43.4773 168.017 45.2955C164.35 47.0985 160.153 48 155.426 48ZM149.949 39.5682H155.994C158.919 39.5682 161.479 39.0227 163.676 37.9318C165.888 36.8409 167.699 35.1591 169.108 32.8864C170.532 30.6136 171.54 27.7045 172.131 24.1591C172.691 20.7955 172.653 18.0682 172.017 15.9773C171.396 13.8712 170.191 12.3333 168.403 11.3636C166.616 10.3788 164.267 9.88636 161.358 9.88636H154.881L149.949 39.5682Z" fill="#FFA800"/>
<path d="M135.182 25.3636C134.333 30.3333 132.689 34.553 130.25 38.0227C127.826 41.4924 124.864 44.1288 121.364 45.9318C117.879 47.7348 114.121 48.6364 110.091 48.6364C105.864 48.6364 102.22 47.6742 99.1591 45.75C96.1136 43.8258 93.9091 41.0455 92.5454 37.4091C91.1818 33.7576 90.9242 29.3561 91.7727 24.2045C92.5909 19.2197 94.2197 14.9924 96.6591 11.5227C99.0985 8.03787 102.076 5.38636 105.591 3.56818C109.106 1.73484 112.886 0.818176 116.932 0.818176C121.129 0.818176 124.75 1.78787 127.795 3.72727C130.856 5.66666 133.061 8.46969 134.409 12.1364C135.773 15.7879 136.03 20.197 135.182 25.3636ZM125.386 24.2045C125.917 21.0076 125.894 18.3258 125.318 16.1591C124.758 13.9773 123.727 12.3258 122.227 11.2045C120.727 10.0833 118.833 9.52272 116.545 9.52272C114.061 9.52272 111.78 10.1439 109.705 11.3864C107.644 12.6288 105.902 14.4318 104.477 16.7955C103.068 19.1439 102.091 22 101.545 25.3636C101 28.5758 101.015 31.2576 101.591 33.4091C102.182 35.5606 103.235 37.1894 104.75 38.2955C106.28 39.3864 108.182 39.9318 110.455 39.9318C112.924 39.9318 115.182 39.3258 117.227 38.1136C119.288 36.8864 121.023 35.1061 122.432 32.7727C123.841 30.4242 124.826 27.5682 125.386 24.2045Z" fill="#FFA800"/>
<path d="M85.1193 25.3636C84.2708 30.3333 82.6269 34.553 80.1875 38.0227C77.7632 41.4924 74.8011 44.1288 71.3011 45.9318C67.8163 47.7348 64.0587 48.6364 60.0284 48.6364C55.8011 48.6364 52.1572 47.6742 49.0966 45.75C46.0511 43.8258 43.8466 41.0455 42.4829 37.4091C41.1193 33.7576 40.8617 29.3561 41.7102 24.2045C42.5284 19.2197 44.1572 14.9924 46.5966 11.5227C49.036 8.03787 52.0132 5.38636 55.5284 3.56818C59.0436 1.73484 62.8239 0.818176 66.8693 0.818176C71.0663 0.818176 74.6875 1.78787 77.7329 3.72727C80.7935 5.66666 82.9981 8.46969 84.3466 12.1364C85.7102 15.7879 85.9678 20.197 85.1193 25.3636ZM75.3239 24.2045C75.8542 21.0076 75.8314 18.3258 75.2557 16.1591C74.6951 13.9773 73.6648 12.3258 72.1648 11.2045C70.6648 10.0833 68.7708 9.52272 66.4829 9.52272C63.9981 9.52272 61.7178 10.1439 59.642 11.3864C57.5814 12.6288 55.839 14.4318 54.4148 16.7955C53.0057 19.1439 52.0284 22 51.4829 25.3636C50.9375 28.5758 50.9526 31.2576 51.5284 33.4091C52.1193 35.5606 53.1723 37.1894 54.6875 38.2955C56.2178 39.3864 58.1193 39.9318 60.392 39.9318C62.8617 39.9318 65.1193 39.3258 67.1648 38.1136C69.2254 36.8864 70.9602 35.1061 72.3693 32.7727C73.7784 30.4242 74.7633 27.5682 75.3239 24.2045Z" fill="#FFA800"/>
<path d="M1.13635 48L8.86363 1.45454H39.6818L38.3182 9.56818H17.3409L15.5227 20.6591H34.4545L33.0909 28.7727H14.1591L10.9773 48H1.13635Z" fill="#FFA800"/>
<path d="M847.514 255.727H851.503L855.844 266.307H856.105L863.912 255.727H867.901L857.116 269.864L855.594 279H852.094L853.605 269.864L847.514 255.727Z" fill="#FFA800"/>
<path d="M829.102 279L832.966 255.727H836.477L833.114 275.977H843.659L843.159 279H829.102Z" fill="#FFA800"/>
<path d="M808.696 279L812.56 255.727H820.855C822.658 255.727 824.098 256.057 825.173 256.716C826.257 257.375 826.999 258.273 827.401 259.409C827.81 260.545 827.897 261.83 827.662 263.261C827.42 264.693 826.904 265.981 826.117 267.125C825.336 268.261 824.295 269.163 822.992 269.83C821.688 270.489 820.139 270.818 818.344 270.818H812.628L813.117 267.841H818.503C819.647 267.841 820.609 267.644 821.389 267.25C822.177 266.848 822.795 266.303 823.242 265.614C823.688 264.917 823.98 264.133 824.117 263.261C824.26 262.375 824.223 261.595 824.003 260.92C823.783 260.239 823.348 259.705 822.696 259.318C822.052 258.932 821.151 258.739 819.992 258.739H815.582L812.207 279H808.696Z" fill="#FFA800"/>
<path d="M788.29 279L792.153 255.727H800.449C802.252 255.727 803.691 256.057 804.767 256.716C805.85 257.375 806.593 258.273 806.994 259.409C807.403 260.545 807.491 261.83 807.256 263.261C807.013 264.693 806.498 265.981 805.71 267.125C804.93 268.261 803.888 269.163 802.585 269.83C801.282 270.489 799.733 270.818 797.938 270.818H792.222L792.71 267.841H798.097C799.241 267.841 800.203 267.644 800.983 267.25C801.771 266.848 802.388 266.303 802.835 265.614C803.282 264.917 803.574 264.133 803.71 263.261C803.854 262.375 803.816 261.595 803.597 260.92C803.377 260.239 802.941 259.705 802.29 259.318C801.646 258.932 800.744 258.739 799.585 258.739H795.176L791.801 279H788.29Z" fill="#FFA800"/>
<path d="M783.526 255.727H787.048L784.514 271.034C784.249 272.663 783.628 274.106 782.651 275.364C781.673 276.614 780.431 277.598 778.923 278.318C777.416 279.03 775.734 279.386 773.878 279.386C772.014 279.386 770.45 279.03 769.185 278.318C767.919 277.598 767.007 276.614 766.446 275.364C765.893 274.106 765.753 272.663 766.026 271.034L768.56 255.727H772.071L769.582 270.75C769.416 271.803 769.495 272.739 769.821 273.557C770.154 274.375 770.707 275.019 771.48 275.489C772.26 275.951 773.241 276.182 774.423 276.182C775.605 276.182 776.662 275.951 777.594 275.489C778.533 275.019 779.298 274.375 779.889 273.557C780.488 272.739 780.87 271.803 781.037 270.75L783.526 255.727Z" fill="#FFA800"/>
<path d="M759.614 261.977C759.621 260.833 759.25 259.958 758.5 259.352C757.758 258.746 756.72 258.443 755.386 258.443C754.432 258.443 753.58 258.595 752.83 258.898C752.087 259.193 751.481 259.602 751.011 260.125C750.549 260.64 750.265 261.227 750.159 261.886C750.061 262.439 750.11 262.917 750.307 263.318C750.511 263.72 750.803 264.057 751.182 264.33C751.568 264.595 751.992 264.818 752.455 265C752.917 265.174 753.364 265.318 753.795 265.432L755.977 266.023C756.682 266.205 757.398 266.451 758.125 266.761C758.852 267.072 759.508 267.481 760.091 267.989C760.674 268.496 761.11 269.125 761.398 269.875C761.686 270.625 761.742 271.523 761.568 272.568C761.341 273.886 760.807 275.057 759.966 276.08C759.125 277.102 758.015 277.909 756.636 278.5C755.258 279.091 753.659 279.386 751.841 279.386C750.099 279.386 748.633 279.11 747.443 278.557C746.261 278.004 745.394 277.22 744.841 276.205C744.288 275.182 744.091 273.97 744.25 272.568H747.784C747.701 273.409 747.852 274.11 748.239 274.67C748.633 275.223 749.186 275.636 749.898 275.909C750.61 276.174 751.417 276.307 752.318 276.307C753.318 276.307 754.231 276.152 755.057 275.841C755.883 275.523 756.564 275.083 757.102 274.523C757.64 273.955 757.97 273.292 758.091 272.534C758.212 271.845 758.114 271.28 757.795 270.841C757.485 270.402 757.015 270.038 756.386 269.75C755.765 269.462 755.057 269.208 754.261 268.989L751.636 268.239C749.856 267.731 748.508 266.985 747.591 266C746.674 265.015 746.345 263.712 746.602 262.091C746.83 260.75 747.39 259.58 748.284 258.58C749.178 257.58 750.292 256.803 751.625 256.25C752.958 255.689 754.405 255.409 755.966 255.409C757.542 255.409 758.883 255.689 759.989 256.25C761.095 256.811 761.913 257.583 762.443 258.568C762.974 259.553 763.159 260.689 763 261.977H759.614Z" fill="#FFA800"/>
<path d="M775.384 240L779.247 216.727H793.838L793.338 219.75H782.259L781.077 226.841H791.395L790.895 229.852H780.577L779.395 236.977H790.611L790.111 240H775.384Z" fill="#FFA800"/>
<path d="M748.659 240L746.068 216.727H749.761L751.307 234.75H751.523L759.227 216.727H762.886L764.614 234.761H764.841L772.341 216.727H776.045L765.716 240H762.182L760.193 222.568H760.011L752.205 240H748.659Z" fill="#FFA800"/>
</svg>
